<svg width="67" height="67" viewBox="0 0 67 67" fill="none" xmlns="http://www.w3.org/2000/svg">
<g id="fa-solid:camera">
<path id="Vector" d="M67 18.8438V56.5312C67 59.999 64.1865 62.8125 60.7188 62.8125H6.28125C2.81348 62.8125 0 59.999 0 56.5312V18.8438C0 15.376 2.81348 12.5625 6.28125 12.5625H17.7969L19.4064 8.25723C20.3225 5.81016 22.6648 4.1875 25.282 4.1875H41.7049C44.3221 4.1875 46.6645 5.81016 47.5805 8.25723L49.2031 12.5625H60.7188C64.1865 12.5625 67 15.376 67 18.8438ZM49.2031 37.6875C49.2031 29.0246 42.1629 21.9844 33.5 21.9844C24.8371 21.9844 17.7969 29.0246 17.7969 37.6875C17.7969 46.3504 24.8371 53.3906 33.5 53.3906C42.1629 53.3906 49.2031 46.3504 49.2031 37.6875ZM45.0156 37.6875C45.0156 44.0342 39.8467 49.2031 33.5 49.2031C27.1533 49.2031 21.9844 44.0342 21.9844 37.6875C21.9844 31.3408 27.1533 26.1719 33.5 26.1719C39.8467 26.1719 45.0156 31.3408 45.0156 37.6875Z" fill="#EDD5BB"/>
</g>
</svg>
